<svg id="visual" viewBox="0 0 900 600" width="900" height="600" xmlns="http://www.w3.org/2000/svg" xmlnsXlink="http://www.w3.org/1999/xlink" version="1.1"><rect x="0" y="0" width="900" height="600" fill="#ffffff"></rect><path d="M409 600L422.5 587.5C436 575 463 550 461.3 525C459.7 500 429.3 475 415.3 450C401.3 425 403.7 400 419.3 375C435 350 464 325 479.8 300C495.7 275 498.3 250 495.5 225C492.7 200 484.3 175 492.3 150C500.3 125 524.7 100 518.2 75C511.7 50 474.3 25 455.7 12.5L437 0L900 0L900 12.5C900 25 900 50 900 75C900 100 900 125 900 150C900 175 900 200 900 225C900 250 900 275 900 300C900 325 900 350 900 375C900 400 900 425 900 450C900 475 900 500 900 525C900 550 900 575 900 587.5L900 600Z" fill="#69affa"></path><path d="M622 600L621.7 587.5C621.3 575 620.7 550 601.7 525C582.7 500 545.3 475 535.2 450C525 425 542 400 539.2 375C536.3 350 513.7 325 506 300C498.3 275 505.7 250 508.8 225C512 200 511 175 513.3 150C515.7 125 521.3 100 525 75C528.7 50 530.3 25 531.2 12.5L532 0L900 0L900 12.5C900 25 900 50 900 75C900 100 900 125 900 150C900 175 900 200 900 225C900 250 900 275 900 300C900 325 900 350 900 375C900 400 900 425 900 450C900 475 900 500 900 525C900 550 900 575 900 587.5L900 600Z" fill="#4091f4"></path><path d="M619 600L616 587.5C613 575 607 550 603.7 525C600.3 500 599.7 475 616.2 450C632.7 425 666.3 400 661.8 375C657.3 350 614.7 325 604.3 300C594 275 616 250 616.5 225C617 200 596 175 588 150C580 125 585 100 596 75C607 50 624 25 632.5 12.5L641 0L900 0L900 12.5C900 25 900 50 900 75C900 100 900 125 900 150C900 175 900 200 900 225C900 250 900 275 900 300C900 325 900 350 900 375C900 400 900 425 900 450C900 475 900 500 900 525C900 550 900 575 900 587.5L900 600Z" fill="#1d72eb"></path><path d="M672 600L674 587.5C676 575 680 550 693.7 525C707.3 500 730.7 475 743.7 450C756.7 425 759.3 400 744.8 375C730.3 350 698.7 325 679.8 300C661 275 655 250 669.2 225C683.3 200 717.7 175 728.7 150C739.7 125 727.3 100 718.3 75C709.3 50 703.7 25 700.8 12.5L698 0L900 0L900 12.5C900 25 900 50 900 75C900 100 900 125 900 150C900 175 900 200 900 225C900 250 900 275 900 300C900 325 900 350 900 375C900 400 900 425 900 450C900 475 900 500 900 525C900 550 900 575 900 587.5L900 600Z" fill="#1b50dc"></path><path d="M771 600L766.5 587.5C762 575 753 550 758.5 525C764 500 784 475 785.3 450C786.7 425 769.3 400 769 375C768.7 350 785.3 325 791.7 300C798 275 794 250 785.8 225C777.7 200 765.3 175 774.3 150C783.3 125 813.7 100 814.7 75C815.7 50 787.3 25 773.2 12.5L759 0L900 0L900 12.5C900 25 900 50 900 75C900 100 900 125 900 150C900 175 900 200 900 225C900 250 900 275 900 300C900 325 900 350 900 375C900 400 900 425 900 450C900 475 900 500 900 525C900 550 900 575 900 587.5L900 600Z" fill="#3324c7"></path></svg>