<svg width="15" height="15" viewBox="0 0 15 15" fill="none" xmlns="http://www.w3.org/2000/svg">
<path d="M0 7.5C0 8.98336 0.439867 10.4334 1.26398 11.6668C2.08809 12.9001 3.25943 13.8614 4.62987 14.4291C6.00032 14.9967 7.50832 15.1453 8.96317 14.8559C10.418 14.5665 11.7544 13.8522 12.8033 12.8033C13.8522 11.7544 14.5665 10.418 14.8559 8.96317C15.1453 7.50832 14.9967 6.00032 14.4291 4.62987C13.8614 3.25943 12.9001 2.08809 11.6668 1.26398C10.4334 0.439867 8.98336 0 7.5 0C5.51154 0.0021837 3.60516 0.793061 2.19911 2.19911C0.793061 3.60516 0.0021837 5.51154 0 7.5ZM8.03025 3.96975C8.17085 4.11039 8.24984 4.30113 8.24984 4.5C8.24984 4.69887 8.17085 4.8896 8.03025 5.03025L6.3105 6.75H10.5C10.6989 6.75 10.8897 6.82902 11.0303 6.96967C11.171 7.11032 11.25 7.30109 11.25 7.5C11.25 7.69891 11.171 7.88968 11.0303 8.03033C10.8897 8.17098 10.6989 8.25 10.5 8.25H6.3105L8.03025 9.96975C8.16687 10.1112 8.24246 10.3006 8.24075 10.4973C8.23904 10.6939 8.16017 10.8821 8.02111 11.0211C7.88206 11.1602 7.69395 11.239 7.4973 11.2408C7.30065 11.2425 7.1112 11.1669 6.96975 11.0302L3.96975 8.03025C3.82988 7.88922 3.75139 7.69863 3.75139 7.5C3.75139 7.30137 3.82988 7.11078 3.96975 6.96975L6.96975 3.96975C7.11039 3.82915 7.30112 3.75016 7.5 3.75016C7.69887 3.75016 7.8896 3.82915 8.03025 3.96975Z" fill="#F5F5F5"/>
</svg>